<svg width="16" height="16" viewBox="0 0 16 16" fill="none" xmlns="http://www.w3.org/2000/svg">
<path d="M12.841 10.282C12.534 9.96221 12.1636 9.79122 11.771 9.79119C11.3816 9.79116 11.008 9.95892 10.6883 10.2786L9.68776 11.2758C9.60545 11.2315 9.52314 11.1903 9.444 11.1492C9.33003 11.0922 9.2224 11.0383 9.1306 10.9813C8.19355 10.3861 7.342 9.61038 6.52529 8.60673C6.1296 8.1065 5.8637 7.68542 5.67062 7.25801C5.93024 7.02059 6.17086 6.77368 6.40516 6.53626C6.49381 6.44762 6.58246 6.35582 6.67111 6.26718C7.33599 5.60241 7.33606 4.74129 6.67129 4.07641L5.80708 3.21206C5.70895 3.11391 5.60765 3.0126 5.51268 2.91128C5.32274 2.71499 5.12331 2.51236 4.91755 2.32239C4.61048 2.01844 4.24326 1.85695 3.85702 1.85692C3.47079 1.85689 3.09721 2.01832 2.7806 2.32221C2.77743 2.32538 2.77743 2.32538 2.77426 2.32855L1.69779 3.41435C1.29252 3.81954 1.06138 4.3134 1.01068 4.88641C0.93462 5.81083 1.20681 6.67197 1.41571 7.23551C1.92847 8.61903 2.6945 9.90126 3.83727 11.2753C5.22377 12.9312 6.89207 14.2388 8.79784 15.1602C9.52596 15.5054 10.4978 15.9138 11.5837 15.9836C11.6502 15.9868 11.7199 15.9899 11.7832 15.9899C12.5145 15.99 13.1287 15.7273 13.6099 15.2049C13.6131 15.1986 13.6194 15.1954 13.6226 15.1891C13.7872 14.9897 13.9772 14.8092 14.1767 14.6161C14.3128 14.4864 14.4521 14.3502 14.5883 14.2078C14.9017 13.8817 15.0664 13.5018 15.0664 13.1124C15.0664 12.7199 14.8987 12.3431 14.5789 12.0265L12.841 10.282ZM13.9741 13.6157C13.971 13.6157 13.971 13.6189 13.9741 13.6157C13.8507 13.7487 13.724 13.869 13.5879 14.0019C13.3821 14.1982 13.1731 14.404 12.9768 14.635C12.657 14.9769 12.2803 15.1384 11.7864 15.1383C11.7389 15.1383 11.6883 15.1383 11.6408 15.1351C10.7005 15.0749 9.82678 14.7076 9.17147 14.3941C7.37967 13.5265 5.80634 12.2949 4.49897 10.734C3.41952 9.43277 2.6978 8.22969 2.21987 6.93798C1.92551 6.14966 1.81792 5.53548 1.86545 4.95613C1.89714 4.58573 2.03963 4.27865 2.30241 4.01591L3.38206 2.93644C3.5372 2.79082 3.70183 2.71169 3.86329 2.7117C4.06273 2.71172 4.22418 2.83203 4.32548 2.93335C4.32865 2.93652 4.33181 2.93968 4.33498 2.94285C4.52808 3.12332 4.71169 3.31012 4.90479 3.50958C5.00292 3.6109 5.10422 3.71221 5.20552 3.81669L6.06973 4.68104C6.40528 5.01665 6.40525 5.3269 6.06965 5.66246C5.97783 5.75426 5.88918 5.84606 5.79736 5.9347C5.53141 6.20694 5.27812 6.46019 5.00267 6.7071C4.99634 6.71343 4.99 6.7166 4.98684 6.72293C4.71455 6.99517 4.76519 7.26111 4.82216 7.44156C4.82532 7.45106 4.82849 7.46056 4.83165 7.47006C5.05638 8.0146 5.37293 8.5275 5.85409 9.13854L5.85725 9.14171C6.73094 10.2182 7.65214 11.0572 8.66832 11.6999C8.79812 11.7823 8.93108 11.8488 9.0577 11.9121C9.17167 11.9691 9.27931 12.0229 9.37111 12.0799C9.38377 12.0862 9.39644 12.0957 9.4091 12.1021C9.51673 12.1559 9.61804 12.1812 9.72251 12.1812C9.98528 12.1813 10.1499 12.0167 10.2037 11.9628L11.2865 10.8802C11.3942 10.7726 11.5652 10.6428 11.7646 10.6428C11.9609 10.6428 12.1223 10.7663 12.2205 10.8739C12.2236 10.8771 12.2236 10.8771 12.2268 10.8803L13.9711 12.6248C14.2971 12.9477 14.2971 13.2802 13.9741 13.6157Z" fill="#949494"/>
<path d="M9.09312 4.55771C9.92257 4.69707 10.676 5.0897 11.2775 5.69126C11.8789 6.29282 12.2683 7.04632 12.4107 7.87579C12.4455 8.08474 12.6259 8.23038 12.8317 8.2304C12.857 8.2304 12.8792 8.22724 12.9045 8.22407C13.1388 8.1861 13.2939 7.9645 13.256 7.73023C13.0851 6.72664 12.6103 5.81167 11.8854 5.08663C11.1604 4.36159 10.2456 3.88664 9.24199 3.7156C9.00772 3.67759 8.78926 3.8327 8.74808 4.06381C8.70691 4.29491 8.85885 4.5197 9.09312 4.55771Z" fill="#949494"/>
<path d="M15.9691 7.60701C15.6875 5.95442 14.9088 4.45057 13.7122 3.25379C12.5156 2.057 11.0119 1.27807 9.35934 0.99618C9.12824 0.955005 8.90978 1.11328 8.8686 1.34438C8.8306 1.57865 8.9857 1.79711 9.21997 1.83829C10.6952 2.08851 12.0407 2.78827 13.1106 3.85525C14.1806 4.92539 14.877 6.27094 15.127 7.74624C15.1618 7.95519 15.3422 8.10084 15.548 8.10085C15.5733 8.10086 15.5955 8.09769 15.6208 8.09453C15.8519 8.05972 16.0102 7.83813 15.9691 7.60701Z" fill="#949494"/>
</svg>
