<svg width="16" height="19" viewBox="0 0 16 19" fill="none" xmlns="http://www.w3.org/2000/svg">
<path d="M7.4399 10.4916C7.45815 10.4916 7.47641 10.4916 7.49832 10.4916C7.50563 10.4916 7.51293 10.4916 7.52024 10.4916C7.53119 10.4916 7.5458 10.4916 7.55675 10.4916C8.62674 10.4734 9.49224 10.0973 10.1314 9.37799C11.5374 7.79322 11.3039 5.07625 11.2784 4.81697C11.1873 2.87055 10.2671 1.93926 9.50755 1.50463C8.94154 1.17958 8.28058 1.00424 7.54292 0.98957L7.51735 0.989568C7.5137 0.989567 7.5064 0.989567 7.50275 0.989566L7.48084 0.989565C7.07548 0.989532 6.27938 1.0552 5.51612 1.4897C4.74921 1.92421 3.81427 2.85534 3.72281 4.81636C3.69723 5.07563 3.46329 7.79256 4.86911 9.37756C5.50447 10.097 6.36992 10.4732 7.4399 10.4916ZM4.69784 4.90773C4.69784 4.89678 4.70149 4.88582 4.70149 4.87852C4.82221 2.26018 6.68101 1.97914 7.4771 1.9792L7.49171 1.97921C7.49901 1.97921 7.50997 1.97921 7.52092 1.97921C8.50691 2.0012 10.1831 2.40303 10.2961 4.87897C10.2961 4.88993 10.2961 4.90088 10.2997 4.90819C10.3034 4.93375 10.5588 7.417 9.39741 8.72425C8.93724 9.24277 8.32371 9.49835 7.51666 9.50559C7.50936 9.50559 7.50571 9.50559 7.4984 9.50559C7.4911 9.50559 7.48745 9.50559 7.48015 9.50559C6.67675 9.49822 6.05961 9.24254 5.60318 8.72395C4.44566 7.42381 4.69419 4.92964 4.69784 4.90773Z" fill="#949494"/>
<path d="M15.0024 14.9985C15.0024 14.9949 15.0024 14.9912 15.0024 14.9876C15.0024 14.9583 14.9988 14.9291 14.9988 14.8963C14.9769 14.1732 14.9296 12.4824 13.3448 11.9418C13.3338 11.9382 13.3192 11.9345 13.3082 11.9309C11.6613 11.5108 10.2919 10.5612 10.2773 10.5502C10.0546 10.3932 9.74784 10.4479 9.59079 10.6707C9.43375 10.8934 9.4885 11.2002 9.71125 11.3572C9.77332 11.4011 11.2267 12.4127 13.0452 12.8803C13.8961 13.1835 13.9909 14.0928 14.0164 14.9254C14.0164 14.9583 14.0164 14.9875 14.0201 15.0167C14.0237 15.3454 14.0018 15.853 13.9433 16.1451C13.3517 16.481 11.0327 17.6421 7.50504 17.6418C3.992 17.6415 1.65859 16.4764 1.06337 16.1404C1.00497 15.8482 0.979446 15.3406 0.986776 15.012C0.986779 14.9828 0.990433 14.9536 0.990436 14.9207C1.01607 14.0881 1.11109 13.1788 1.96198 12.8758C3.78062 12.4085 5.23412 11.3934 5.29621 11.3532C5.51898 11.1962 5.57378 10.8895 5.41677 10.6667C5.25976 10.4439 4.95302 10.3891 4.73024 10.5461C4.71564 10.5571 3.35343 11.5064 1.69913 11.9263C1.68452 11.9299 1.67357 11.9336 1.66261 11.9372C0.0776808 12.4812 0.0300703 14.172 0.00810112 14.8914C0.00809846 14.9243 0.00809601 14.9535 0.00444183 14.9827C0.00444153 14.9863 0.00444124 14.99 0.00444094 14.9936C0.000773745 15.1835 -0.00295699 16.1586 0.190549 16.6479C0.22706 16.7429 0.292786 16.8232 0.380425 16.878C0.489973 16.9511 3.11549 18.6238 7.50862 18.6241C11.9017 18.6245 14.5275 16.9485 14.6371 16.8792C14.7211 16.8244 14.7905 16.7441 14.827 16.6491C15.0096 16.1634 15.0061 15.1884 15.0024 14.9985Z" fill="#949494"/>
</svg>
